<mxfile host="app.diagrams.net" agent="Mozilla/5.0 (Macintosh; Intel Mac OS X 10_15_7) AppleWebKit/537.36 (KHTML, like Gecko) Chrome/138.0.0.0 Safari/537.36" version="28.1.0">
  <diagram name="Page-1" id="wbGBW1jS81ZizKsiZcg6">
    <mxGraphModel dx="2084" dy="707" grid="1" gridSize="10" guides="1" tooltips="1" connect="1" arrows="1" fold="1" page="1" pageScale="1" pageWidth="850" pageHeight="1100" math="0" shadow="0">
      <root>
        <mxCell id="0" />
        <mxCell id="1" parent="0" />
        <mxCell id="JtdoKjVE-vTLF738PINb-1" value="&lt;div&gt;&lt;br&gt;&lt;/div&gt;&lt;div&gt;&lt;br&gt;&lt;/div&gt;&lt;b&gt;CAP&lt;/b&gt;&lt;div&gt;&lt;b&gt;THEOREM&lt;/b&gt;&lt;/div&gt;" style="triangle;whiteSpace=wrap;html=1;direction=north;fontStyle=0;fontSize=24;fillColor=#dae8fc;strokeColor=#6c8ebf;" vertex="1" parent="1">
          <mxGeometry x="90" y="140" width="400" height="320" as="geometry" />
        </mxCell>
        <mxCell id="JtdoKjVE-vTLF738PINb-3" value="C" style="ellipse;whiteSpace=wrap;html=1;aspect=fixed;fontStyle=0;fontSize=24;fillColor=#d5e8d4;strokeColor=#82b366;" vertex="1" parent="1">
          <mxGeometry x="250" y="110" width="80" height="80" as="geometry" />
        </mxCell>
        <mxCell id="JtdoKjVE-vTLF738PINb-4" value="A" style="ellipse;whiteSpace=wrap;html=1;aspect=fixed;fontStyle=0;fontSize=24;fillColor=#d5e8d4;strokeColor=#82b366;" vertex="1" parent="1">
          <mxGeometry x="440" y="410" width="80" height="80" as="geometry" />
        </mxCell>
        <mxCell id="JtdoKjVE-vTLF738PINb-5" value="P" style="ellipse;whiteSpace=wrap;html=1;aspect=fixed;fontStyle=0;fontSize=24;fillColor=#d5e8d4;strokeColor=#82b366;" vertex="1" parent="1">
          <mxGeometry x="50" y="420" width="80" height="80" as="geometry" />
        </mxCell>
        <mxCell id="JtdoKjVE-vTLF738PINb-7" value="&lt;h1 style=&quot;margin-top: 0px;&quot;&gt;&lt;u&gt;CA Category&lt;/u&gt;&lt;/h1&gt;&lt;div&gt;1. Network failure might stop the system.&lt;/div&gt;&lt;div style=&quot;margin-top: 5px;&quot;&gt;2.&amp;nbsp;&lt;span style=&quot;background-color: transparent; color: light-dark(rgb(0, 0, 0), rgb(255, 255, 255));&quot;&gt;CA systems do exist in &lt;/span&gt;&lt;strong style=&quot;background-color: transparent; color: light-dark(rgb(0, 0, 0), rgb(255, 255, 255));&quot; class=&quot;markup--strong markup--p-strong&quot;&gt;non-partitioned&lt;/strong&gt;&lt;span style=&quot;background-color: transparent; color: light-dark(rgb(0, 0, 0), rgb(255, 255, 255));&quot;&gt; or &lt;/span&gt;&lt;strong style=&quot;background-color: transparent; color: light-dark(rgb(0, 0, 0), rgb(255, 255, 255));&quot; class=&quot;markup--strong markup--p-strong&quot;&gt;single-primary replication&lt;/strong&gt;&lt;span style=&quot;background-color: transparent; color: light-dark(rgb(0, 0, 0), rgb(255, 255, 255));&quot;&gt; contexts.&lt;/span&gt;&lt;/div&gt;&lt;div&gt;&lt;span style=&quot;background-color: transparent; color: light-dark(rgb(0, 0, 0), rgb(255, 255, 255));&quot;&gt;&lt;br&gt;&lt;/span&gt;&lt;/div&gt;&lt;div style=&quot;margin-top: 0px;&quot;&gt;&lt;span style=&quot;background-color: transparent; color: light-dark(rgb(0, 0, 0), rgb(255, 255, 255));&quot;&gt;Ex: RDBMS ( MYSQL, Oracle, SQL Server)&lt;/span&gt;&lt;/div&gt;&lt;div&gt;&lt;br&gt;&lt;/div&gt;&lt;div&gt;&lt;u&gt;&lt;br&gt;&lt;/u&gt;&lt;/div&gt;&lt;p&gt;&lt;br&gt;&lt;/p&gt;&lt;p&gt;&lt;br&gt;&lt;/p&gt;&lt;p&gt;&lt;br&gt;&lt;/p&gt;" style="text;html=1;whiteSpace=wrap;overflow=hidden;rounded=1;fillColor=#d5e8d4;strokeColor=#82b366;fillStyle=auto;spacing=10;" vertex="1" parent="1">
          <mxGeometry x="440" y="180" width="290" height="170" as="geometry" />
        </mxCell>
        <mxCell id="JtdoKjVE-vTLF738PINb-9" value="&lt;h1 style=&quot;margin-top: 0px;&quot;&gt;&lt;u&gt;CP Category&lt;/u&gt;&lt;/h1&gt;&lt;p style=&quot;margin-top: 10px; margin-bottom: 0px;&quot;&gt;1. &lt;b&gt;C&lt;/b&gt;&lt;strong style=&quot;background-color: transparent; color: light-dark(rgb(0, 0, 0), rgb(255, 255, 255));&quot; class=&quot;markup--strong markup--p-strong&quot;&gt;onsistency is protected&lt;/strong&gt;&lt;span style=&quot;background-color: transparent; color: light-dark(rgb(0, 0, 0), rgb(255, 255, 255));&quot;&gt;, but the system may temporarily reject requests, hurting availability&lt;/span&gt;&lt;span style=&quot;background-color: transparent; color: light-dark(rgb(0, 0, 0), rgb(255, 255, 255));&quot;&gt;&amp;nbsp;when partition happens.&lt;/span&gt;&lt;/p&gt;&lt;p style=&quot;margin-top: 5px; margin-bottom: 0px;&quot;&gt;&lt;span style=&quot;background-color: transparent; color: light-dark(rgb(0, 0, 0), rgb(255, 255, 255));&quot;&gt;2. Exists in&amp;nbsp;&lt;/span&gt;&lt;span style=&quot;background-color: transparent; color: light-dark(rgb(0, 0, 0), rgb(255, 255, 255));&quot;&gt;primaryâ€“secondary replication model&lt;/span&gt;&lt;/p&gt;&lt;p style=&quot;margin-top: 0px; margin-bottom: 0px;&quot;&gt;&lt;span style=&quot;background-color: transparent; color: light-dark(rgb(0, 0, 0), rgb(255, 255, 255));&quot;&gt;&lt;br&gt;&lt;/span&gt;&lt;/p&gt;&lt;p style=&quot;margin-top: 0px; margin-bottom: 0px;&quot;&gt;&lt;span style=&quot;background-color: transparent; color: light-dark(rgb(0, 0, 0), rgb(255, 255, 255));&quot;&gt;Ex: MongoDB, Redis, HBase, etc.&lt;/span&gt;&lt;/p&gt;" style="text;html=1;whiteSpace=wrap;overflow=hidden;rounded=1;fillColor=#d5e8d4;strokeColor=#82b366;spacing=10;" vertex="1" parent="1">
          <mxGeometry x="-140" y="180" width="280" height="170" as="geometry" />
        </mxCell>
        <mxCell id="JtdoKjVE-vTLF738PINb-10" value="&lt;h1 style=&quot;margin-top: 0px;&quot;&gt;&lt;u&gt;AP Category&lt;/u&gt;&lt;/h1&gt;&lt;p style=&quot;margin-top: 0px; margin-bottom: 0px;&quot;&gt;1. N&lt;span style=&quot;background-color: transparent; color: light-dark(rgb(0, 0, 0), rgb(255, 255, 255));&quot;&gt;odes may serve &lt;/span&gt;&lt;strong style=&quot;background-color: transparent; color: light-dark(rgb(0, 0, 0), rgb(255, 255, 255));&quot; class=&quot;markup--strong markup--p-strong&quot;&gt;slightly outdated data&lt;/strong&gt;&lt;span style=&quot;background-color: transparent; color: light-dark(rgb(0, 0, 0), rgb(255, 255, 255));&quot;&gt; until they synchronize later when partition happens.&lt;/span&gt;&lt;/p&gt;&lt;p style=&quot;margin-top: 5px; margin-bottom: 0px;&quot;&gt;&lt;span style=&quot;background-color: transparent; color: light-dark(rgb(0, 0, 0), rgb(255, 255, 255));&quot;&gt;2. Exists in&amp;nbsp;&lt;/span&gt;&lt;span style=&quot;background-color: transparent; color: light-dark(rgb(0, 0, 0), rgb(255, 255, 255));&quot;&gt;no single master setup where any node can accept writes. This makes it highly available, but a client might read stale data&lt;/span&gt;&lt;/p&gt;&lt;p style=&quot;margin-top: 0px; margin-bottom: 0px;&quot;&gt;&lt;span style=&quot;background-color: transparent; color: light-dark(rgb(0, 0, 0), rgb(255, 255, 255));&quot;&gt;&lt;br&gt;&lt;/span&gt;&lt;/p&gt;&lt;p style=&quot;margin-top: 0px; margin-bottom: 0px;&quot;&gt;&lt;span style=&quot;background-color: transparent; color: light-dark(rgb(0, 0, 0), rgb(255, 255, 255));&quot;&gt;Ex: Cassandra, CouchDB&lt;/span&gt;&lt;/p&gt;" style="text;html=1;whiteSpace=wrap;overflow=hidden;rounded=1;fillColor=#d5e8d4;strokeColor=#82b366;spacing=10;" vertex="1" parent="1">
          <mxGeometry x="132.5" y="500" width="315" height="180" as="geometry" />
        </mxCell>
      </root>
    </mxGraphModel>
  </diagram>
</mxfile>
